<svg width="64" height="64" viewBox="0 0 64 64" fill="none" xmlns="http://www.w3.org/2000/svg">
<path d="M46.7198 10.4954H17.2542L7.42383 38.7578L30.9067 32.0685L27.9217 20.1696L48.028 13.0144L46.7173 10.4902L46.7198 10.4954ZM21.6062 18.2496C19.804 18.2496 18.8465 16.7494 18.8465 15.5539C18.8465 13.9411 20.2033 12.7123 21.6062 12.7123C23.3189 12.7123 24.3633 14.2355 24.3633 15.5539C24.3633 17.1667 23.0065 18.2496 21.6062 18.2496Z" fill="white"/>
<path d="M31.4878 36.0698L11.7144 41.904L31.8539 56.5856L37.2837 52.5075L31.4878 36.0698Z" fill="white"/>
<path d="M33.8686 23.5258L41.6024 49.8937L56.2456 38.7245L49.4283 18.2445L33.8686 23.5206V23.5258ZM43.1819 31.5232C41.0366 31.5232 39.3496 29.3677 39.3496 27.7139C39.3496 25.8682 41.5 23.7843 43.4661 23.7843C45.4219 23.7843 47.0808 25.7248 47.0808 27.5475C47.0808 29.5443 45.0763 31.5232 43.1819 31.5232Z" fill="white"/>
</svg>
